<?xml version="1.0" encoding="UTF-8"?>
<svg id="a" xmlns="http://www.w3.org/2000/svg" version="1.1" viewBox="0 0 425.2 113.39">
  <!-- Generator: Adobe Illustrator 30.3.0, SVG Export Plug-In . SVG Version: 2.1.3 Build 182)  -->
  <defs>
    <style>
      .st0 {
        isolation: isolate;
      }

      .st1 {
        fill-rule: evenodd;
      }
    </style>
  </defs>
  <g class="st0">
    <g class="st0">
      <path d="M192.83,23.93v21.53h-17.28v3.17h24.91v9.07h-61.13v-9.07h24.63v-3.17h-17.28v-21.53h46.16ZM146.17,70.52h35.64v-2.09h-35.72v-8.5h47.16v18.51h-35.64v2.3h37.3v8.64h-48.75v-18.87ZM158.05,32.79v3.89h23.33v-3.89h-23.33Z"/>
      <path d="M243.88,40.78c0,9.43-8.14,16.2-18.79,16.2s-18.79-6.77-18.79-16.2,8.14-16.13,18.79-16.13,18.79,6.77,18.79,16.13ZM227.96,61.16v5.26h22.68v-5.26h11.52v27.87h-45.65v-27.87h11.45ZM217.67,40.78c0,4.46,3.1,6.62,7.42,6.62s7.42-2.16,7.42-6.62-3.1-6.62-7.42-6.62-7.42,2.3-7.42,6.62ZM227.96,79.81h22.68v-4.61h-22.68v4.61ZM262.17,22.13v36.29h-11.67V22.13h11.67Z"/>
      <path d="M301.4,26.16c0,18.07-6.62,30.03-25.13,37.73l-5.4-8.21c6.26-2.45,10.66-5.26,13.68-8.64l-11.16,1.22-1.3-9,17.07-.72c.29-1.01.5-2.09.65-3.17h-15.12v-9.22h26.71ZM329.77,63.82v25.2h-46.59v-25.2h46.59ZM294.64,72.82v7.13h23.76v-7.13h-23.76ZM314.8,23.28v13.75h3.96v-14.98h11.02v39.39h-11.02v-15.12h-3.96v14.69h-10.8V23.28h10.8Z"/>
      <path d="M399.25,72.89v9.43h-61.13v-9.43h61.13ZM350.94,55.11v-18.5h-8.5v-9.22h52.2v9.22h-8.5v18.5h8.21v9.22h-51.48v-9.22h8.06ZM362.53,55.11h12.03v-18.5h-12.03v18.5Z"/>
    </g>
  </g>
  <g>
    <path class="st1" d="M0,0v113.39h113.39V0H0ZM103.94,103.94H9.45V9.45h94.49s0,94.49,0,94.49Z"/>
    <g>
      <path id="b" class="st1" d="M29.91,44.75h13.4v-9.84h-13.4s0,9.84,0,9.84ZM22.44,51.33h28.34v-23h-28.34s0,23,0,23Z"/>
      <path id="c" class="st1" d="M83.96,39.82c0,1.91-.72,3.46-2.2,4.73-1.5,1.28-3.42,1.93-5.74,1.93s-4.2-.65-5.69-1.94c-1.49-1.29-2.21-2.83-2.21-4.71s.72-3.4,2.2-4.71h0c1.48-1.32,3.4-1.99,5.7-1.99s4.27.66,5.75,1.96,2.19,2.84,2.19,4.73M87.04,30.41c-2.85-2.42-6.56-3.64-11.02-3.64s-8.1,1.22-10.98,3.64c-2.91,2.45-4.39,5.61-4.39,9.41s1.48,6.93,4.39,9.39c2.88,2.43,6.57,3.67,10.98,3.67s8.17-1.23,11.02-3.64c2.88-2.45,4.34-5.61,4.34-9.41s-1.46-6.96-4.34-9.41"/>
      <polygon id="d" class="st1" points="22 69.3 43.31 69.3 43.31 72.49 22.44 72.49 22.44 79.07 43.31 79.07 43.31 86.61 50.78 86.61 50.78 62.72 22 62.72 22 69.3"/>
      <path id="e" class="st1" d="M73.32,79.59h5.4v-9.84h-5.4v9.84ZM60.97,69.75h4.93v9.85h-4.93v6.58h30.11v-6.58h-4.93v-9.85h4.93v-6.58h-30.11v6.58Z"/>
    </g>
  </g>
</svg>