<?xml version="1.0" encoding="UTF-8"?>
<svg id="a" data-name="레이어 1" xmlns="http://www.w3.org/2000/svg" viewBox="0 0 113.39 113.39">
  <defs>
    <style>
      .f {
        fill-rule: evenodd;
        stroke-width: 0px;
      }
    </style>
  </defs>
  <path class="f" d="m0,0v113.39h113.39V0H0Zm103.94,103.94H9.45V9.45h94.49v94.49Z"/>
  <g>
    <path id="b" data-name="Fill-1" class="f" d="m29.91,44.75h13.4v-9.84h-13.4v9.84Zm-7.47,6.58h28.34v-23h-28.34v23Z"/>
    <path id="c" data-name="Fill-2" class="f" d="m83.96,39.82c0,1.91-.72,3.46-2.2,4.73-1.5,1.28-3.42,1.93-5.74,1.93s-4.2-.65-5.69-1.94c-1.49-1.29-2.21-2.83-2.21-4.71s.72-3.4,2.2-4.71h0c1.48-1.32,3.4-1.99,5.7-1.99s4.27.66,5.75,1.96c1.48,1.3,2.19,2.84,2.19,4.73m3.08-9.41c-2.85-2.42-6.56-3.64-11.02-3.64s-8.1,1.22-10.98,3.64c-2.91,2.45-4.39,5.61-4.39,9.41s1.48,6.93,4.39,9.39c2.88,2.43,6.57,3.67,10.98,3.67s8.17-1.23,11.02-3.64c2.88-2.45,4.34-5.61,4.34-9.41s-1.46-6.96-4.34-9.41"/>
    <polygon id="d" data-name="Fill-4" class="f" points="22 69.3 43.31 69.3 43.31 72.49 22.44 72.49 22.44 79.07 43.31 79.07 43.31 86.61 50.78 86.61 50.78 62.72 22 62.72 22 69.3"/>
    <path id="e" data-name="Fill-6" class="f" d="m73.32,79.59h5.4v-9.84h-5.4v9.84Zm-12.35-9.84h4.93v9.85h-4.93v6.58h30.11v-6.58h-4.93v-9.85h4.93v-6.58h-30.11v6.58Z"/>
  </g>
</svg>